{"title":"MYLENE FARMER---Interview TF1_02.12.2012[ 1080p]","uid":7911894,"size":410516960,"categoryP":"video","categoryS":"music_videos","magnet":"?xt=urn:btih:1c1edf5fffba146a8dd7e2a0cd88bb7bf4d7c213&amp;dn=MYLENE+FARMER---Interview+TF1_02.12.2012%5B+1080p%5D&amp;tr=udp%3A%2F%2Ftracker.openbittorrent.com%3A80&amp;tr=udp%3A%2F%2Fopen.demonii.com%3A1337&amp;tr=udp%3A%2F%2Ftracker.coppersurfer.tk%3A6969&amp;tr=udp%3A%2F%2Fexodus.desync.com%3A6969","seeders":1,"leechers":0,"uploader":null,"files":-1,"time":1355240018,"description":"Format                                   : AVI\nFormat/Info                              : Audio Video Interleave\nFile size                                : 391 MiB\nDuration                                 : 7mn 10s\nOverall bit rate                         : 7 626 Kbps\nWriting library                          : TMPGEnc 4.0 XPress Version. 4.7.7.307\n\nVideo\nID                                       : 0\nFormat                                   : MPEG-4 Visual\nFormat profile                           : Advanced Simple@L5\nFormat settings, BVOP                    : 2\nFormat settings, QPel                    : No\nFormat settings, GMC                     : No warppoints\nFormat settings, Matrix                  : Default (H.263)\nMuxing mode                              : Packed bitstream\nCodec ID                                 : XVID\nCodec ID/Hint                            : XviD\nDuration                                 : 7mn 10s\nBit rate                                 : 6 077 Kbps\nWidth                                    : 1 920 pixels\nHeight                                   : 1 080 pixels\nDisplay aspect ratio                     : 16:9\nFrame rate                               : 25.000 fps\nColor space                              : YUV\nChroma subsampling                       : 4:2:0\nBit depth                                : 8 bits\nScan type                                : Progressive\nCompression mode                         : Lossy\nBits/(Pixel*Frame)                       : 0.117\nStream size                              : 312 MiB (80%)\nWriting library                          : XviD 64\n\nAudio\nID                                       : 1\nFormat                                   : PCM\nFormat settings, Endianness              : Little\nFormat settings, Sign                    : Signed\nCodec ID                                 : 1\nDuration                                 : 7mn 10s\nBit rate mode                            : Constant\nBit rate                                 : 1 536 Kbps\nChannel(s)                               : 2 channels\nSampling rate                            : 48.0 KHz\nBit depth                                : 16 bits\nStream size                              : 78.9 MiB (20%)\nInterleave, duration                     : 40 ms (1.00 video frame)\nInterleave, preload duration             : 479 ms\n\n","torrent":{"xt":"urn:btih:1c1edf5fffba146a8dd7e2a0cd88bb7bf4d7c213","amp;dn":"MYLENE+FARMER---Interview+TF1_02.12.2012%5B+1080p%5D","amp;tr":["udp%3A%2F%2Ftracker.openbittorrent.com%3A80","udp%3A%2F%2Fopen.demonii.com%3A1337","udp%3A%2F%2Ftracker.coppersurfer.tk%3A6969","udp%3A%2F%2Fexodus.desync.com%3A6969"],"infoHash":"1c1edf5fffba146a8dd7e2a0cd88bb7bf4d7c213","infoHashBuffer":{"type":"Buffer","data":[28,30,223,95,255,186,20,106,141,215,226,160,205,136,187,123,244,215,194,19]},"announce":[],"urlList":[]}}